<svg width="120" height="120" viewBox="0 0 120 120" fill="none" xmlns="http://www.w3.org/2000/svg">
<g id="Group 9">
<path id="Ellipse 1" d="M120 60C120 93.1371 93.1371 120 60 120C26.8629 120 0 93.1371 0 60C0 26.8629 26.8629 0 60 0C93.1371 0 120 26.8629 120 60ZM11.469 60C11.469 86.8029 33.1971 108.531 60 108.531C86.8029 108.531 108.531 86.8029 108.531 60C108.531 33.1971 86.8029 11.469 60 11.469C33.1971 11.469 11.469 33.1971 11.469 60Z" fill="#E7E7E8"/>
<path id="Ellipse 2" d="M114.266 60C117.433 60 120.028 57.4266 119.726 54.274C118.506 41.5436 113.241 29.4793 104.626 19.8933C94.7273 8.87961 81.1057 1.91535 66.3817 0.340346C51.6576 -1.23466 36.8712 2.69086 24.8672 11.3617C12.8632 20.0325 4.48966 32.836 1.35752 47.3091C-1.77461 61.7821 0.55594 76.9021 7.90081 89.7603C15.2457 102.618 27.086 112.306 41.1438 116.96C55.2016 121.614 70.4837 120.905 84.0501 114.969C95.858 109.803 105.64 100.995 112.015 89.9081C113.593 87.1625 112.294 83.7461 109.41 82.4366C106.526 81.1272 103.155 82.426 101.515 85.1352C96.3546 93.6587 88.6662 100.431 79.4529 104.462C68.4798 109.263 56.1188 109.836 44.7481 106.072C33.3775 102.308 23.8005 94.4719 17.8596 84.0716C11.9187 73.6713 10.0336 61.4414 12.567 49.7349C15.1005 38.0284 21.8734 27.6723 31.5828 20.6589C41.2923 13.6455 53.2523 10.4704 65.1618 11.7443C77.0714 13.0182 88.0892 18.6513 96.0955 27.5597C102.818 35.0393 107.018 44.3841 108.193 54.2786C108.566 57.4236 111.098 60 114.266 60Z" fill="#49D293"/>
</g>
</svg>
