<svg width="120" height="120" viewBox="0 0 120 120" fill="none" xmlns="http://www.w3.org/2000/svg">
<g id="Group 9">
<path id="Ellipse 1" d="M120 60C120 93.1371 93.1371 120 60 120C26.8629 120 0 93.1371 0 60C0 26.8629 26.8629 0 60 0C93.1371 0 120 26.8629 120 60ZM11.469 60C11.469 86.8029 33.1971 108.531 60 108.531C86.8029 108.531 108.531 86.8029 108.531 60C108.531 33.1971 86.8029 11.469 60 11.469C33.1971 11.469 11.469 33.1971 11.469 60Z" fill="#E7E7E8"/>
<path id="Ellipse 2" d="M114.266 60C117.433 60 120.028 57.4265 119.726 54.2739C118.63 42.8387 114.268 31.914 107.102 22.8328C98.7478 12.2455 87.0702 4.78141 73.9534 1.64503C60.8366 -1.49135 47.0457 -0.117159 34.8058 5.54589C22.5658 11.2089 12.5907 20.8306 6.48991 32.8583C0.389129 44.8861 -1.48153 58.6185 1.17978 71.8398C3.84108 85.0612 10.8791 97.0004 21.1583 105.731C31.4376 114.462 44.3584 119.475 57.8362 119.961C69.3965 120.378 80.7882 117.444 90.6624 111.574C93.3847 109.955 93.9276 106.34 92.0567 103.785C90.1858 101.229 86.611 100.708 83.8529 102.265C76.0892 106.646 67.2324 108.824 58.2498 108.499C47.3483 108.106 36.8973 104.051 28.5829 96.9895C20.2686 89.9277 14.5759 80.2707 12.4233 69.5766C10.2707 58.8826 11.7837 47.7751 16.7184 38.0465C21.653 28.3178 29.7213 20.5354 39.6216 15.9548C49.5219 11.3742 60.6767 10.2627 71.2862 12.7996C81.8957 15.3364 91.3411 21.3737 98.0985 29.9373C103.666 36.9936 107.142 45.426 108.193 54.2786C108.566 57.4236 111.098 60 114.266 60Z" fill="#FF4240"/>
</g>
</svg>
