<svg width="120" height="120" viewBox="0 0 120 120" fill="none" xmlns="http://www.w3.org/2000/svg">
<g id="Group 9">
<path id="Ellipse 1" d="M120 60C120 93.1371 93.1371 120 60 120C26.8629 120 0 93.1371 0 60C0 26.8629 26.8629 0 60 0C93.1371 0 120 26.8629 120 60ZM11.469 60C11.469 86.8029 33.1971 108.531 60 108.531C86.8029 108.531 108.531 86.8029 108.531 60C108.531 33.1971 86.8029 11.469 60 11.469C33.1971 11.469 11.469 33.1971 11.469 60Z" fill="#E7E7E8"/>
<path id="Ellipse 2" d="M110.134 80.7677C113.06 81.9797 116.443 80.5956 117.371 77.5673C120.973 65.8033 120.885 53.165 117.038 41.3814C112.596 27.7733 103.435 16.2017 91.2094 8.75578C78.9837 1.30986 64.4986 -1.51971 50.3695 0.777937C36.2403 3.07558 23.3982 10.349 14.1616 21.2851C4.92507 32.2212 -0.0972474 46.0992 0.00142546 60.4136C0.100098 74.728 5.31326 88.5355 14.6997 99.3431C24.0862 110.151 37.0273 117.247 51.1868 119.349C63.4479 121.17 75.9229 119.143 86.9184 113.623C89.7488 112.202 90.5474 108.635 88.8628 105.953C87.1783 103.271 83.6496 102.497 80.7878 103.854C72.1379 107.954 62.4244 109.423 52.8714 108.005C41.4186 106.304 30.9511 100.565 23.3589 91.8227C15.7666 83.0809 11.55 71.9127 11.4702 60.3345C11.3903 48.7563 15.4526 37.5311 22.9236 28.6854C30.3946 19.8398 40.782 13.9567 52.2103 12.0982C63.6387 10.2398 75.3549 12.5285 85.2438 18.5511C95.1326 24.5737 102.542 33.9334 106.135 44.9403C109.132 54.1213 109.309 63.9437 106.713 73.1577C105.855 76.2061 107.208 79.5556 110.134 80.7677Z" fill="#FFB546"/>
</g>
</svg>
